Coordinates
version=1
nRows=32
nColumns=12
inDegrees=yes

Units are S.I. units (second, meters, Newtons, ...)
Angles are in degrees

endheader
time	SC_y	SC_z	SC_x	AC_y	AC_z	AC_x	GH_y	GH_z	GH_yy	EL_x	PS_y
       0.0              -57.25          12.96          13.12          45.87         -12.29         -3.025          173.5          27.41         -124.3          71.37          62.03
   0.01098              -57.24          12.96          13.12          45.88         -12.29         -3.021          173.5          27.41         -124.2          71.37          62.02
   0.02196              -57.24          12.96          13.12          45.88         -12.29         -3.018          173.5           27.4         -124.2          71.37          62.01
   0.03294              -57.24          12.96          13.11          45.88          -12.3         -3.014          173.5           27.4         -124.1          71.37           62.0
   0.04393              -57.24          12.96          13.11          45.88          -12.3          -3.01          173.5          27.39         -124.1          71.36           62.0
   0.05491              -57.23          12.97          13.11          45.89          -12.3         -3.006          173.5          27.39         -124.0          71.36          61.99
   0.06589              -57.23          12.97          13.11          45.89          -12.3         -3.002          173.5          27.38         -124.0          71.36          61.98
   0.07687              -57.23          12.97          13.11          45.89          -12.3         -2.997          173.5          27.37         -123.9          71.36          61.97
   0.08785              -57.22          12.97          13.11           45.9          -12.3         -2.992          173.4          27.37         -123.8          71.35          61.96
   0.09883              -57.22          12.97          13.11           45.9          -12.3         -2.987          173.4          27.36         -123.7          71.35          61.95
    0.1098              -57.21          12.97          13.11           45.9          -12.3         -2.981          173.4          27.35         -123.7          71.35          61.93
    0.1208              -57.21          12.98          13.11          45.91          -12.3         -2.975          173.4          27.35         -123.6          71.34          61.92
    0.1318              -57.21          12.98          13.11          45.91          -12.3         -2.968          173.4          27.34         -123.5          71.34          61.91
    0.1428               -57.2          12.98          13.11          45.92          -12.3         -2.961          173.4          27.33         -123.4          71.33          61.89
    0.1537              -57.19          12.98          13.11          45.92         -12.31         -2.953          173.3          27.32         -123.3          71.33          61.88
    0.1647              -57.19          12.99          13.11          45.93         -12.31         -2.944          173.3          27.31         -123.2          71.32          61.86
    0.1757              -57.18          12.99          13.11          45.94         -12.31         -2.935          173.3          27.29         -123.0          71.32          61.84
    0.1867              -57.17          12.99           13.1          45.94         -12.31         -2.925          173.3          27.28         -122.9          71.31          61.82
    0.1977              -57.17           13.0           13.1          45.95         -12.31         -2.914          173.2          27.27         -122.7           71.3          61.79
    0.2086              -57.16           13.0           13.1          45.96         -12.31         -2.902          173.2          27.25         -122.6           71.3          61.77
    0.2196              -57.15          13.01           13.1          45.97         -12.32         -2.889          173.2          27.23         -122.4          71.29          61.74
    0.2306              -57.14          13.01           13.1          45.98         -12.32         -2.874          173.1          27.21         -122.2          71.28          61.71
    0.2416              -57.13          13.02           13.1          45.99         -12.32         -2.858          173.1          27.19         -122.0          71.27          61.68
    0.2526              -57.11          13.02          13.09           46.0         -12.33          -2.84          173.0          27.17         -121.7          71.26          61.64
    0.2636               -57.1          13.03          13.09          46.02         -12.33          -2.82          173.0          27.14         -121.5          71.24           61.6
    0.2745              -57.08          13.04          13.09          46.03         -12.33         -2.798          172.9          27.11         -121.1          71.23          61.55
    0.2855              -57.07          13.05          13.09          46.05         -12.34         -2.773          172.9          27.08         -120.8          71.21           61.5
    0.2965              -57.05          13.06          13.08          46.07         -12.34         -2.746          172.8          27.05         -120.4           71.2          61.44
    0.3075              -57.02          13.07          13.08          46.09         -12.35         -2.714          172.7           27.0         -120.0          71.18          61.38
    0.3185               -57.0          13.08          13.08          46.11         -12.35         -2.678          172.6          26.96         -119.5          71.15           61.3
    0.3294              -56.97           13.1          13.07          46.14         -12.36         -2.637          172.5           26.9         -118.9          71.13          61.22
    0.3404              -56.93          13.11          13.07          46.18         -12.37         -2.591          172.4          26.84         -118.3           71.1          61.12
